<svg version="1" xmlns="http://www.w3.org/2000/svg" width="933.333" height="933.333" viewBox="0 0 700.000000 700.000000"><path d="M540.2 10.1c-8.3 1.6-14.6 5.4-26.2 16-56 50.5-259.4 241.4-363.3 340.8-22.2 21.2-30.5 29.9-32.4 33.4-1.3 2.7-2.2 5.1-2 5.3.2.3-3.2 3.9-7.6 8.2-4.4 4.2-15.4 16-24.4 26.2-14.5 16.3-16.3 18.8-15.9 21.3.3 1.5.8 9.4 1.2 17.5.7 16.5-.7 33.2-5.6 67.2-5.9 40.9-10.2 61.2-15.6 72.3-1.9 3.9-3.4 8.1-3.4 9.2 0 1.3-4 6-10.6 12.5-13 12.8-29.1 30.4-31.6 34.5-3.4 5.6-2.3 10.4 3 13.7 3.6 2.2 4.5 2.3 33.8 2.6l30 .4L81 680c19-18.6 17.3-18 104.5-33.4 33.6-5.9 33.9-6 45.3-4 11.8 2 18.8 1.4 24.6-2 10.2-6 42.6-34.5 47.8-42.2 1.4-2.1 2.8-5 3-6.4.2-1.4 1.5-3.2 2.9-4.1 6.6-4.2 244.4-254.5 348.4-366.9 25-27 28-30.4 32.8-37.4 12.4-18.3 12-39.3-1-55.5-17.1-21.4-103.7-107.7-114.2-113.9-7.8-4.6-23.3-6.4-34.9-4.1zm20.7 19c4.6 1 6.5 2.6 29.8 24.8 22 21.1 69 68.7 77 78.1l3 3.5L469.3 335C358.5 444.7 267.5 534.6 267.1 534.8c-.9.3-128.1-127.5-128.1-128.7 0-2.9 335.6-318.9 391.3-368.5 10.3-9.1 17.9-11.3 30.6-8.5z"/></svg>